HIERARCHY
ROOT Hips
{
  OFFSET -13.8101 37.1238 36.3411
  CHANNELS 6 Xposition Yposition Zposition Zrotation Xrotation Yrotation
  JOINT Spine
  {
    OFFSET 0 0 9.09008
    CHANNELS 6 Xposition Yposition Zposition Zrotation Xrotation Yrotation
    JOINT Head
    {
      OFFSET 0 0 15.9751
      CHANNELS 6 Xposition Yposition Zposition Zrotation Xrotation Yrotation
      End Site
      {
        OFFSET 0 0 4.52755
      }
    }
    JOINT LeftShoulder
    {
      OFFSET 0 0 12.5984
      CHANNELS 6 Xposition Yposition Zposition Zrotation Xrotation Yrotation
      JOINT LeftArm
      {
        OFFSET -7.874 0 0
        CHANNELS 6 Xposition Yposition Zposition Zrotation Xrotation Yrotation
        JOINT LeftForeArm
        {
          OFFSET -12.9921 0 0
          CHANNELS 6 Xposition Yposition Zposition Zrotation Xrotation Yrotation
          JOINT LeftHand
          {
            OFFSET -10.3081 0 0
            CHANNELS 6 Xposition Yposition Zposition Zrotation Xrotation Yrotation
            JOINT LeftHandPinky1
            {
              OFFSET -2.81979 -0.13815 0
              CHANNELS 6 Xposition Yposition Zposition Zrotation Xrotation Yrotation
              End Site
              {
                OFFSET -1.9685 0 0
              }
            }
            JOINT LeftHandIndex1
            {
              OFFSET -4.14743 0.13815 0
              CHANNELS 6 Xposition Yposition Zposition Zrotation Xrotation Yrotation
              End Site
              {
                OFFSET -2.3622 0 0
              }
            }
          }
        }
      }
    }
    JOINT RightShoulder
    {
      OFFSET 0 0 12.5984
      CHANNELS 6 Xposition Yposition Zposition Zrotation Xrotation Yrotation
      JOINT RightArm
      {
        OFFSET 7.874 0 0
        CHANNELS 6 Xposition Yposition Zposition Zrotation Xrotation Yrotation
        JOINT RightForeArm
        {
          OFFSET 12.9921 0 0
          CHANNELS 6 Xposition Yposition Zposition Zrotation Xrotation Yrotation
          JOINT RightHand
          {
            OFFSET 10.3081 0 0
            CHANNELS 6 Xposition Yposition Zposition Zrotation Xrotation Yrotation
            JOINT RightHandPinky1
            {
              OFFSET 2.94832 -0.17528 0
              CHANNELS 6 Xposition Yposition Zposition Zrotation Xrotation Yrotation
              End Site
              {
                OFFSET 1.9685 0 0
              }
            }
            JOINT RightHandIndex1
            {
              OFFSET 3.46188 0.17528 0
              CHANNELS 6 Xposition Yposition Zposition Zrotation Xrotation Yrotation
              End Site
              {
                OFFSET 2.3622 0 0
              }
            }
          }
        }
      }
    }
  }
  JOINT LeftUpLeg
  {
    OFFSET -4.08853 0 0
    CHANNELS 6 Xposition Yposition Zposition Zrotation Xrotation Yrotation
    JOINT LeftLeg
    {
      OFFSET 0 0 -17.3605
      CHANNELS 6 Xposition Yposition Zposition Zrotation Xrotation Yrotation
      JOINT LeftFoot
      {
        OFFSET 0 0 -16.1351
        CHANNELS 6 Xposition Yposition Zposition Zrotation Xrotation Yrotation
        JOINT LeftToeBase
        {
          OFFSET 0 5.10779 -1.36863
          CHANNELS 6 Xposition Yposition Zposition Zrotation Xrotation Yrotation
          End Site
          {
            OFFSET 0 1.77165 0
          }
        }
      }
    }
  }
  JOINT RightUpLeg
  {
    OFFSET 4.08853 0 0
    CHANNELS 6 Xposition Yposition Zposition Zrotation Xrotation Yrotation
    JOINT RightLeg
    {
      OFFSET 0 0 -17.3605
      CHANNELS 6 Xposition Yposition Zposition Zrotation Xrotation Yrotation
      JOINT RightFoot
      {
        OFFSET 0 0 -16.1351
        CHANNELS 6 Xposition Yposition Zposition Zrotation Xrotation Yrotation
        JOINT RightToeBase
        {
          OFFSET 0 5.10779 -1.36863
          CHANNELS 6 Xposition Yposition Zposition Zrotation Xrotation Yrotation
          End Site
          {
            OFFSET 0 1.77165 0
          }
        }
      }
    }
  }
}
MOTION
Frames:	5
Frame Time:	0.0416667
-13.8101 37.1238 36.3411 -3.1538 -75.974 1.70969 -3.55271e-015 0 9.09008 -13.4607 -28.2693 -7.11815 -1e-005 0 15.9751 15.5255 -2.67113 -1.15317 -1e-005 0 12.5984 5.507 -25.6274 8.33021 -7.874 0 3.55271e-015 -5.44645 24.1247 -75.0386 -12.9921 1e-005 -7.10543e-015 -42.0503 -23.4115 -8.66471e-015 -10.3081 -3.55271e-015 3.55271e-015 9.84914 2.95996 16.5641 -2.81979 -0.13815 0 -0.236695 0.313603 -52.9557 -4.14743 0.13815 0 -12.18 13.5093 -47.263 -1e-005 0 12.5984 -4.01806 -32.1038 -3.62786 7.874 0 1e-005 50.1272 19.045 48.9234 12.9921 -1e-005 1e-005 29.0261 31.9715 -3.74928e-015 10.3081 -7.10543e-015 1e-005 -7.62753 3.81828 -26.4395 2.94832 -0.17528 -1.77636e-015 -2.96989 -3.47392 49.4298 3.46188 0.17528 0 22.8337 11.9179 26.1261 -4.08853 3.55271e-015 -1.42109e-014 1.01448 -13.0688 -2.92585 1e-005 0 -17.3605 -1.76422e-016 -16.0661 8.08063e-017 1e-005 -7.10543e-015 -16.1351 -1.65018 8.55451 4.03937 0 5.10779 -1.36863 3.35649e-016 10.4585 3.41116e-016 4.08853 -7.10543e-015 -1.42109e-014 -10.7079 6.10753 -4.38872 1e-005 3.55271e-015 -17.3605 -1.92849e-015 -50.4902 -2.49961e-015 1e-005 0 -16.1351 2.02485 3.59146 6.84306 0 5.10779 -1.36863 -7.70027e-016 17.8904 2.50662e-015 
-13.8944 37.0456 34.7584 -1.17731 -76.1298 3.95675 3.55271e-015 7.10543e-015 9.09008 -14.1163 -28.0321 -7.7327 -1e-005 0 15.9751 15.805 -2.50583 -0.74274 -1e-005 0 12.5984 5.53351 -25.4042 8.66332 -7.874 0 7.10543e-015 -4.40727 26.0985 -75.3045 -12.9921 1e-005 3.55271e-015 -44.0963 -22.8154 -2.07032e-014 -10.3081 0 0 9.93717 3.04271 16.8556 -2.81979 -0.13815 -7.10543e-015 -0.288947 0.387008 -53.2536 -4.14743 0.13815 0 -12.045 12.9969 -46.506 -1e-005 0 12.5984 -3.41856 -30.4055 -3.25494 7.874 0 1e-005 48.686 17.3562 51.0244 12.9921 -1e-005 1e-005 28.4008 32.0115 -3.75091e-015 10.3081 0 1e-005 -7.20023 3.56846 -26.229 2.94832 -0.17528 -1.77636e-015 -3.44212 -3.97863 49.0846 3.46188 0.17528 -1.77636e-015 22.4626 11.9338 26.5707 -4.08853 0 0 0.148455 -16.8251 -3.4399 1e-005 -7.10543e-015 -17.3605 3.47516e-016 -13.3323 -2.17059e-016 1e-005 7.10543e-015 -16.1351 -0.926763 8.92192 -0.755515 0 5.10779 -1.36863 0 10.6871 -0 4.08853 7.10543e-015 7.10543e-015 -11.7358 8.0298 -3.32418 1e-005 0 -17.3605 4.77083e-015 -39.2142 -0 1e-005 -7.10543e-015 -16.1351 1.62476 3.26597 6.72934 -8.88178e-016 5.10779 -1.36863 -5.28686e-016 18.3893 1.67586e-015 
-14.0019 36.8595 33.1513 2.30517 -76.4697 8.24763 0 -3.55271e-015 9.09008 -15.1453 -27.3702 -8.81852 -1e-005 7.10543e-015 15.9751 15.86 -2.50479 -0.199761 -1e-005 0 12.5984 5.14072 -24.1594 8.95884 -7.874 0 3.55271e-015 -4.3084 26.3421 -75.3049 -12.9921 1e-005 -7.10543e-015 -45.701 -22.334 -0 -10.3081 0 3.55271e-015 9.76827 3.09302 17.4023 -2.81979 -0.13815 0 -0.464882 0.63271 -53.6957 -4.14743 0.13815 0 -12.0356 13.5134 -47.6189 -1e-005 0 12.5984 -2.88829 -28.6988 -2.87231 7.874 -1.42109e-014 1e-005 46.9608 15.7344 53.4634 12.9921 -1e-005 1e-005 27.901 32.0175 3.75116e-015 10.3081 -3.55271e-015 1e-005 -7.77245 3.98392 -26.9796 2.94832 -0.17528 0 -2.52877 -3.07509 50.504 3.46188 0.17528 1.77636e-015 22.4309 12.8738 28.3621 -4.08853 0 -1.42109e-014 -0.535368 -20.1827 -4.40708 1e-005 -7.10543e-015 -17.3605 -0 -10.936 -0 1e-005 0 -16.1351 -0.615905 9.40686 -4.05992 -7.10543e-015 5.10779 -1.36863 -5.76815e-017 10.9485 3.03705e-016 4.08853 -3.55271e-015 -7.10543e-015 -12.9409 9.01539 -2.94698 1e-005 0 -17.3605 1.20659e-015 -25.759 -8.8287e-016 1e-005 -3.55271e-015 -16.1351 0.97441 2.24377 8.23678 0 5.10779 -1.36863 -3.25796e-015 21.2753 2.13323e-016 
-14.0671 36.562 31.5285 7.40602 -77.1308 14.0456 3.55271e-015 0 9.09008 -15.933 -26.2449 -9.30413 -1e-005 7.10543e-015 15.9751 15.589 -2.70052 0.0162662 -1e-005 7.10543e-015 12.5984 4.66353 -23.398 9.23004 -7.874 0 -3.55271e-015 -4.99246 26.3593 -75.188 -12.9921 1e-005 0 -47.0314 -22.0302 -0 -10.3081 0 -3.55271e-015 9.37307 3.00394 17.6138 -2.81979 -0.13815 0 -0.252744 0.345167 -53.7842 -4.14743 0.13815 0 -11.8539 13.286 -47.5944 -1e-005 7.10543e-015 12.5984 -2.86994 -27.4931 -2.84072 7.874 -7.10543e-015 1e-005 46.0135 14.075 55.5237 12.9921 -1e-005 1e-005 27.5237 32.2903 -4.703e-015 10.3081 -3.55271e-015 1e-005 -7.54036 3.82473 -26.7448 2.94832 -0.17528 1.77636e-015 -2.74542 -3.28589 50.0826 3.46188 0.17528 0 22.3727 12.4941 27.7263 -4.08853 3.55271e-015 -7.10543e-015 -1.89187 -22.7552 -5.17883 1e-005 0 -17.3605 -1.06766e-016 -9.38384 -6.54813e-016 1e-005 -7.10543e-015 -16.1351 -1.5769 11.0445 -2.19756 -3.55271e-015 5.10779 -1.36863 3.68766e-016 10.9347 1.51845e-016 4.08853 0 0 -14.8101 9.33339 -2.35531 1e-005 0 -17.3605 -3.27411e-016 -11.6337 -1.62363e-015 1e-005 0 -16.1351 2.71348 1.33791 9.06168 -1.77636e-015 5.10779 -1.36863 -1.09171e-015 19.7123 -1.47811e-015 
-14.0651 36.1958 29.8252 13.2239 -77.5569 20.7336 -3.55271e-015 0 9.09008 -16.8383 -25.1675 -10.0541 -1e-005 -7.10543e-015 15.9751 15.4074 -2.75944 0.367976 -1e-005 -7.10543e-015 12.5984 4.60669 -23.4719 9.55947 -7.874 0 0 -6.54775 26.539 -74.5648 -12.9921 1e-005 3.55271e-015 -48.1809 -21.8037 -6.85123e-015 -10.3081 -3.55271e-015 0 9.31056 2.92598 17.295 -2.81979 -0.13815 0 -0.197218 0.267359 -53.5857 -4.14743 0.13815 0 -11.7413 13.1981 -47.6885 -1e-005 -7.10543e-015 12.5984 -2.24863 -25.4007 -2.49205 7.874 -7.10543e-015 1e-005 44.3772 11.8062 58.5188 12.9921 -1e-005 1e-005 27.3084 31.693 -4.67247e-015 10.3081 3.55271e-015 1e-005 -7.57246 3.75871 -26.249 2.94832 -0.17528 1.77636e-015 -2.83524 -3.37471 49.9248 3.46188 0.17528 1.77636e-015 22.3211 12.3569 27.5305 -4.08853 0 0 -2.52446 -24.9388 -5.47306 1e-005 0 -17.3605 9.06424e-016 -9.08757 7.0459e-016 1e-005 0 -16.1351 -3.0501 12.3456 -2.80617 0 5.10779 -1.36863 1.04535e-016 11.6925 -2.53746e-017 4.08853 0 0 -16.6338 9.27298 -1.48311 1e-005 -3.55271e-015 -17.3605 -1.59028e-015 -1.32142 -0 1e-005 0 -16.1351 2.14369 0.092238 11.6514 1.77636e-015 5.10779 -1.36863 -3.04514e-015 17.2257 -5.82735e-015 
